<?xml version="1.0" encoding="UTF-8"?>
<svg id="Layer_1" data-name="Layer 1" xmlns="http://www.w3.org/2000/svg" viewBox="0 0 338.09 268.2">
  <defs>
    <style>
      .cls-1 {
        fill: #ff364b;
      }

      .cls-2 {
        fill: #737373;
      }
    </style>
  </defs>
  <path class="cls-1" d="M122.12,197.73c-33.89-4.56-64.76-16.67-86.93-34.1C12.49,145.79,0,123.15,0,99.88,0,44.81,68.77,0,153.3,0c31.57,0,61.88,6.19,87.66,17.89l2.15,.97-10.85,16.22-1.68-1.21c-12.78-9.21-38.38-15.51-66.98-16.74,12.18,7.22,22.05,27.19,26.55,54.96,5.38-.9,10.54-2,15.34-3.3l5.14-1.38-33.73,50.43-3.64-1.39c.62-4.46,1.02-9.08,1.19-13.78-7.01,.55-14.11,.84-21.14,.84s-14.14-.28-21.14-.84c.92,25.16,8.61,46.67,18.2,50.51l2.29,.92-18.47,27.62-1.68-2.36c-11.57-16.26-18.48-44.65-18.48-75.95,0-.96,0-1.91,0-2.86-21.25-3.35-39.52-9.31-52.92-17.25-13.13-7.79-20.64-16.98-21.92-26.74-8.85,12.26-13.5,25.87-13.5,39.68,0,42.62,43.7,79.26,103.91,87.13l3.19,.42-9.45,14.13-1.24-.17Zm11.84-123.51c6.38,.51,12.88,.77,19.35,.77s12.96-.26,19.35-.77c-3.45-19.78-11.28-33.42-19.35-33.42s-15.9,13.63-19.35,33.42Zm9.05-57.1c-41.66,1.79-75.12,14.26-75.12,28.82,0,10.87,19.43,21.29,48.57,26.14,4.5-27.78,14.36-47.74,26.55-54.97Z"/>
  <path class="cls-2" d="M193.42,268.2c-37.27,0-70.98-9.19-94.93-25.88l-1.61-1.12,11.69-17.48,1.69,1.31c19.81,15.29,55.47,25.16,90.84,25.16s64.43-9.27,84.69-26.11l.55-.46h4.24q20.25,0,20.91,1.34l.55,1.12-.77,.99c-18.84,24.21-67.29,41.12-117.84,41.12h-.01Zm69.78-45.73c-30.18,0-74.04-.12-111.6-.69-9.75-.15-16.85-2.74-21.11-7.69-3.6-4.2-4.95-9.85-3.99-16.81l.06-.46,84.9-126.93,.59-.23c1.49-.57,9.93-1.81,15.07-1.81h.2c10.89,.07,16.58,3.23,21.48,6.45,4.24,2.79,6.64,6,7.15,9.54,.48,3.36-.78,6.83-3.74,10.33-29.35,34.63-48.95,59.38-68.42,90.92-1.27,2.06-.97,4.91,0,6.67,.51,.94,1.17,1.5,1.75,1.51l119.5,.66c1.49,0,5.26-4.6,7.19-15.23,4.96-27.41-6.52-65.88-55.19-84.08l-2.32-.87,1.33-2.08c2.06-3.22,4.05-7.58,1.25-12.84l-2.07-3.87,4.28,.98c27.75,6.35,63.45,32.58,74.98,68.7,5.95,18.65,7.45,47.15-19.2,77.05l-.59,.66h-.89c-.21,0-21.33,.12-50.6,.12h-.01Z"/>
</svg>