<?xml version="1.0" encoding="UTF-8"?>
<svg id="Layer_1" data-name="Layer 1" xmlns="http://www.w3.org/2000/svg" xmlns:xlink="http://www.w3.org/1999/xlink" viewBox="0 0 400 400">
  <defs>
    <style>
      .cls-1 {
        fill: url(#linear-gradient-2);
      }

      .cls-2 {
        filter: url(#drop-shadow-1);
      }

      .cls-3 {
        fill: url(#linear-gradient);
      }
    </style>
    <filter id="drop-shadow-1" filterUnits="userSpaceOnUse">
      <feOffset dx="0" dy="0"/>
      <feGaussianBlur result="blur" stdDeviation="3"/>
      <feFlood flood-color="#000" flood-opacity=".5"/>
      <feComposite in2="blur" operator="in"/>
      <feComposite in="SourceGraphic"/>
    </filter>
    <linearGradient id="linear-gradient" x1=".35" y1="4.41" x2="215.79" y2="192.88" gradientUnits="userSpaceOnUse">
      <stop offset="0" stop-color="#cc0023"/>
      <stop offset="1" stop-color="#99001d"/>
    </linearGradient>
    <linearGradient id="linear-gradient-2" x1="175.42" y1="181.11" x2="368.63" y2="380.72" gradientUnits="userSpaceOnUse">
      <stop offset="0" stop-color="#666"/>
      <stop offset="1" stop-color="#333"/>
    </linearGradient>
  </defs>
  <g class="cls-2">
    <path class="cls-3" d="M156.35,260.9c-70.66-9.24-124.13-52.6-124.13-104.7,0-19.49,7.5-37.78,20.56-53.48-.14,1.1-.23,2.22-.23,3.34,0,24.55,36.82,45.49,88.19,53.2-.05,1.78-.05,3.57-.05,5.37,0,37.3,8.52,69.95,21.27,87.87l18.2-27.2c-12.56-5.03-22.26-31.54-22.93-64.08,8.78,.77,17.92,1.19,27.26,1.19s18.48-.42,27.26-1.19c-.14,6.65-.66,13.06-1.5,19.08l36.16-54.05c-6.33,1.7-13.23,3.15-20.59,4.3-6-39.86-22.26-68.41-41.33-68.41s-35.32,28.55-41.33,68.41c-36.14-5.63-61.37-18.48-61.37-33.41,0-20.14,45.98-36.47,102.7-36.47,40.45,0,75.41,8.31,92.16,20.37l9.85-14.73c-28.88-13.11-64.05-20.81-102.01-20.81C86.33,45.51,6.74,97,6.74,160.5c0,55.47,60.69,101.78,141.43,112.63l8.18-12.24Zm28.14-172.15c11.59,0,21.49,18.15,25.46,43.74-8.15,.72-16.66,1.12-25.46,1.12s-17.31-.4-25.46-1.12c3.97-25.58,13.88-43.74,25.46-43.74Z"/>
    <path class="cls-1" d="M362.25,307.09c-37.22,47.84-172.63,69.11-246.79,17.42l11.06-16.53c42.74,32.98,151.14,47.05,209.15-1.16,0,0,26.84-.05,26.59,.27Zm-59.49-173.84c4.14,7.74,.62,14.05-1.56,17.46,89.73,33.56,68.75,121.23,55.56,121.23l-140.42-.78c-4.33-.07-7.15-8.1-4-13.19,22.97-37.22,45.94-66.22,80.58-107.1,2.94-3.47,8.69-11.81-3.5-19.85-5.38-3.55-11.63-7.12-23.95-7.19-6.08-.04-15.83,1.49-17.09,1.97l-99.03,148.05c-2.31,16.83,7.76,25.82,27.19,26.12,82.52,1.25,190.52,.68,190.52,.68,66.43-74.53-7.79-154.46-64.31-167.39Z"/>
  </g>
</svg>