<?xml version="1.0" encoding="UTF-8"?>
<svg id="Layer_1" data-name="Layer 1" xmlns="http://www.w3.org/2000/svg" xmlns:xlink="http://www.w3.org/1999/xlink" viewBox="0 0 384 384">
  <defs>
    <style>
      .cls-1 {
        fill: #17b2e7;
      }

      .cls-2 {
        fill: url(#linear-gradient);
      }
    </style>
    <linearGradient id="linear-gradient" x1="6.87" y1="5.22" x2="375.57" y2="376.82" gradientUnits="userSpaceOnUse">
      <stop offset="0" stop-color="#b3edff"/>
      <stop offset="1" stop-color="#0084b3"/>
    </linearGradient>
  </defs>
  <g>
    <path class="cls-1" d="M53.1,130.32L6.6,176.82c-8.43,8.43-8.43,22.11,0,30.55l46.5,46.5c6.32,6.32,17.13,1.84,17.13-7.09v-109.35c0-8.94-10.81-13.41-17.13-7.09Z"/>
    <path class="cls-1" d="M125.87,164.48h127.17c5.54,0,10.03-4.49,10.03-10.03V66.1c0-2.66-1.06-5.21-2.94-7.09L207.55,6.41c-8.43-8.43-22.11-8.43-30.55,0l-58.23,58.23c-1.88,1.88-2.94,4.43-2.94,7.09v82.71c0,5.54,4.49,10.03,10.03,10.03Z"/>
    <path class="cls-1" d="M377.95,176.82l-52.14-52.14c-6.32-6.32-17.13-1.84-17.13,7.09v120.63c0,8.94,10.81,13.41,17.13,7.09l52.14-52.14c8.43-8.43,8.43-22.11,0-30.55Z"/>
    <path class="cls-1" d="M253.05,202.65H125.87c-5.54,0-10.03,4.49-10.03,10.03v99.75c0,2.66,1.06,5.21,2.94,7.09l58.23,58.23c8.43,8.43,22.11,8.43,30.55,0l52.59-52.59c1.88-1.88,2.94-4.43,2.94-7.09v-105.39c0-5.54-4.49-10.03-10.03-10.03Z"/>
  </g>
  <path class="cls-2" d="M70.23,137.41v109.35c0,8.94-10.81,13.41-17.13,7.09L6.6,207.36c-8.43-8.43-8.43-22.11,0-30.55l46.5-46.5c6.32-6.32,17.13-1.84,17.13,7.09Zm55.64,27.07h127.17c5.54,0,10.03-4.49,10.03-10.03V66.1c0-2.66-1.06-5.21-2.94-7.09L207.55,6.41c-8.43-8.43-22.11-8.43-30.55,0l-58.23,58.23c-1.88,1.88-2.94,4.43-2.94,7.09v82.71c0,5.54,4.49,10.03,10.03,10.03Zm252.08,12.34l-52.14-52.14c-6.32-6.32-17.13-1.84-17.13,7.09v120.63c0,8.94,10.81,13.41,17.13,7.09l52.14-52.14c8.43-8.43,8.43-22.11,0-30.55Zm-124.91,25.84H125.87c-5.54,0-10.03,4.49-10.03,10.03v99.75c0,2.66,1.06,5.21,2.94,7.09l58.23,58.23c8.43,8.43,22.11,8.43,30.55,0l52.59-52.59c1.88-1.88,2.94-4.43,2.94-7.09v-105.39c0-5.54-4.49-10.03-10.03-10.03Z"/>
</svg>