<?xml version="1.0" encoding="UTF-8"?>
<svg id="Layer_1" data-name="Layer 1" xmlns="http://www.w3.org/2000/svg" viewBox="0 0 356 356">
  <defs>
    <style>
      .cls-1 {
        fill: #4d000c;
      }

      .cls-2 {
        fill: #1a1a1a;
      }
    </style>
  </defs>
  <path class="cls-1" d="M140.85,229.83c-60.15-7.86-105.66-44.77-105.66-89.11,0-16.59,6.38-32.16,17.5-45.52-.12,.93-.2,1.89-.2,2.84,0,20.9,31.34,38.72,75.06,45.28-.04,1.51-.04,3.04-.04,4.57,0,31.75,7.25,59.54,18.11,74.79l15.49-23.15c-10.69-4.28-18.95-26.85-19.52-54.54,7.48,.66,15.25,1.01,23.21,1.01s15.73-.36,23.21-1.01c-.12,5.66-.56,11.11-1.27,16.24l30.77-46.01c-5.39,1.45-11.26,2.68-17.53,3.66-5.11-33.93-18.95-58.23-35.18-58.23s-30.07,24.3-35.18,58.23c-30.76-4.79-52.24-15.73-52.24-28.44,0-17.14,39.13-31.04,87.41-31.04,34.43,0,64.19,7.07,78.44,17.34l8.39-12.54c-24.58-11.16-54.52-17.71-86.83-17.71C81.25,46.5,13.5,90.33,13.5,144.38c0,47.21,51.65,86.63,120.38,95.87l6.97-10.42Zm23.95-146.53c9.86,0,18.29,15.45,21.67,37.23-6.94,.62-14.18,.95-21.67,.95s-14.73-.34-21.67-.95c3.38-21.78,11.81-37.23,21.67-37.23Z"/>
  <path class="cls-2" d="M316.1,269.15c-31.68,40.72-146.94,58.83-210.06,14.83l9.41-14.07c36.38,28.07,128.65,40.05,178.02-.99,0,0,22.85-.05,22.63,.23Zm-50.64-147.97c3.52,6.59,.52,11.96-1.32,14.86,76.37,28.57,58.52,103.18,47.3,103.18l-119.52-.66c-3.69-.06-6.08-6.89-3.41-11.23,19.56-31.68,39.1-56.37,68.59-91.16,2.5-2.95,7.4-10.05-2.98-16.9-4.58-3.02-9.9-6.06-20.39-6.12-5.18-.03-13.47,1.27-14.55,1.68l-84.29,126.02c-1.97,14.33,6.6,21.98,23.15,22.23,70.24,1.06,162.17,.58,162.17,.58,56.55-63.44-6.63-131.47-54.74-142.48Z"/>
</svg>