<?xml version="1.0" encoding="UTF-8"?>
<svg id="Layer_1" data-name="Layer 1" xmlns="http://www.w3.org/2000/svg" viewBox="0 0 1279.87 553.74">
  <defs>
    <style>
      .cls-1 {
        fill: #fff;
      }

      .cls-2 {
        fill: #f02;
      }

      .cls-3 {
        fill: #1a1a1a;
      }
    </style>
  </defs>
  <path class="cls-3" d="M442.51,177.18c-28.69,36.87-133.05,53.26-190.2,13.42l8.52-12.74c32.94,25.41,116.49,36.26,161.19-.89,0,0,20.69-.04,20.49,.21Zm-45.85-133.97c3.19,5.96,.48,10.83-1.2,13.45,69.15,25.86,52.99,93.42,42.82,93.42l-108.22-.6c-3.34-.06-5.51-6.24-3.08-10.16,17.71-28.69,35.41-51.04,62.11-82.54,2.26-2.67,6.7-9.1-2.7-15.3-5.17-3.41-18.71-5.65-30.02-6.44l-77.94,116.51c-1.78,12.97,5.98,19.9,20.96,20.13,63.6,.96,146.84,.52,146.84,.52,51.2-57.44-6-119.04-49.56-129Z"/>
  <polygon class="cls-2" points="370.41 0 0 0 0 553.74 370.41 0"/>
  <path class="cls-1" d="M242.5,191.24c-54.46-7.12-95.67-40.54-95.67-80.68,0-15.02,5.78-29.11,15.84-41.21-.11,.85-.18,1.71-.18,2.57,0,18.92,28.38,35.06,67.97,41-.04,1.37-.04,2.75-.04,4.14,0,28.75,6.57,53.91,16.4,67.72l14.02-20.96c-9.68-3.88-17.15-24.31-17.67-49.38,6.77,.59,13.81,.92,21.01,.92s14.24-.32,21.01-.92c-.11,5.13-.51,10.06-1.15,14.7l27.87-41.66c-4.88,1.31-10.2,2.43-15.87,3.31-4.63-30.72-17.16-52.72-31.85-52.72s-27.22,22-31.85,52.72c-27.85-4.34-47.3-14.24-47.3-25.75,0-15.52,35.43-28.11,79.15-28.11,31.17,0,58.12,6.4,71.03,15.7l7.59-11.35c-22.26-10.1-49.37-16.03-78.62-16.03-75.66,0-137,39.68-137,88.62,0,42.75,46.77,78.44,109,86.8l6.31-9.43Zm21.69-132.66c8.93,0,16.56,13.99,19.63,33.71-6.28,.56-12.84,.86-19.63,.86s-13.34-.31-19.63-.86c3.06-19.72,10.7-33.71,19.63-33.71Z"/>
  <g>
    <path d="M574.87,78.93v98.03h-24.49V78.93h-37.77v-18.93h100.11v18.93h-37.85Z"/>
    <path d="M713.16,158.04v18.93h-87.24V60h24.49v98.03h62.75Z"/>
    <path d="M762.7,120.27c0-16.8,4.33-29.69,13-38.67,8.67-8.98,19.84-13.48,33.51-13.48s23.6,3.5,31.24,10.51c7.64,7.01,11.46,15.81,11.46,26.4v1.46h-19.78v-1.61c0-6.54-1.9-11.72-5.71-15.53s-9.59-5.71-17.36-5.71-14.08,2.77-18.93,8.31c-4.86,5.54-7.29,14.44-7.29,26.7v9.96c0,11.33,2.39,20,7.18,26,4.79,6.01,11.18,9.01,19.19,9.01,7.37,0,12.92-1.98,16.63-5.93,3.71-3.96,5.79-9.08,6.23-15.38l.07-1.46h19.78l-.07,1.46c-.63,10.5-4.6,19.26-11.9,26.29s-17.54,10.55-30.72,10.55-24.9-4.52-33.54-13.55c-8.64-9.03-12.96-21.9-12.96-38.6v-6.74Z"/>
    <path d="M862.24,137.19c0-11.87,3.45-21.43,10.36-28.71,6.91-7.27,15.86-10.91,26.84-10.91s19.57,3.41,25.75,10.22c6.18,6.81,9.26,16.18,9.26,28.09v7.03h-59.55v-12.6h40.58v-1.76c.05-4.69-1.31-8.67-4.06-11.94-2.76-3.27-6.7-4.91-11.83-4.91-6.05,0-10.62,2.27-13.7,6.81s-4.61,10.5-4.61,17.87v3.88c0,7.23,1.65,13.11,4.94,17.65,3.29,4.54,8.24,6.81,14.83,6.81,4.39,0,8.19-1.04,11.39-3.11,3.2-2.07,5.77-4.5,7.73-7.29l13.11,9.08c-2.44,4.3-6.45,8-12.01,11.1s-12.21,4.65-19.92,4.65c-12.3,0-21.9-3.65-28.78-10.95-6.88-7.3-10.33-16.86-10.33-28.67v-2.34Z"/>
    <path d="M949.25,99.77h17.65l.51,9.16h.44c1.71-3.03,4.55-5.57,8.53-7.62,3.98-2.05,8.48-3.08,13.51-3.08,9.86,0,17.8,3.58,23.8,10.73,6.01,7.15,9.01,16.57,9.01,28.23v2.34c0,11.57-2.97,20.95-8.9,28.12-5.93,7.18-13.76,10.77-23.47,10.77-4.98,0-9.4-.85-13.26-2.56-3.86-1.71-6.79-4.08-8.79-7.1v38.67h-19.04V99.77Zm25.49,60.53c3.03,2.32,6.62,3.48,10.77,3.48,6.05,0,10.53-2.14,13.44-6.41,2.9-4.27,4.36-9.95,4.36-17.03v-3.96c0-7.13-1.45-12.82-4.36-17.07-2.91-4.25-7.41-6.37-13.51-6.37-4.25,0-7.84,1.14-10.77,3.41s-5.05,4.92-6.37,7.95v27.91c1.27,3.08,3.42,5.77,6.45,8.09Z"/>
    <path d="M1038.31,99.77h36.91c9.47,0,16.63,1.67,21.46,5.02,4.83,3.35,7.25,8.31,7.25,14.9,0,4.69-1.36,8.5-4.06,11.43-2.71,2.93-6.38,4.88-11.02,5.86v.22c5.66,.83,10.05,2.76,13.15,5.79,3.1,3.03,4.65,7.01,4.65,11.94,0,6.93-2.5,12.34-7.51,16.22-5.01,3.88-12.07,5.82-21.2,5.82h-39.62V99.77Zm34.5,31.64c4.25,0,7.3-.88,9.16-2.64,1.86-1.76,2.78-4.2,2.78-7.32,0-2.88-.93-5.11-2.78-6.7-1.86-1.59-4.91-2.38-9.16-2.38h-15.67v19.04h15.67Zm2.2,32.96c4.39,0,7.58-.95,9.56-2.86,1.98-1.9,2.97-4.39,2.97-7.47s-.98-5.54-2.93-7.4c-1.95-1.85-5.15-2.78-9.59-2.78h-17.87v20.51h17.87Z"/>
    <path d="M1123.42,99.77h18.9v41.09c0,1.46-.03,3.26-.07,5.38-.05,2.12-.15,3.87-.29,5.24l.73,.07c.63-1.27,1.39-2.67,2.27-4.21s1.83-3.21,2.86-5.02l25.49-42.55h19.04v77.2h-18.9v-41.24c0-1.46,.02-3.23,.07-5.31,.05-2.07,.12-3.85,.22-5.31h-.95c-.59,1.27-1.28,2.66-2.09,4.17-.8,1.51-1.72,3.17-2.75,4.98l-25.49,42.7h-19.04V99.77Z"/>
    <path d="M1207.94,137.19c0-12.01,3.44-21.62,10.33-28.82,6.88-7.2,16.11-10.8,27.69-10.8,10.89,0,19.19,2.78,24.9,8.35s8.69,12.06,8.94,19.48l.07,.95h-18.53v-.73c0-3.76-1.26-6.97-3.77-9.63-2.52-2.66-6.41-3.99-11.68-3.99-6.2,0-10.83,2.26-13.88,6.77-3.05,4.52-4.58,10.39-4.58,17.61v3.96c0,7.18,1.5,13.04,4.5,17.58,3,4.54,7.63,6.81,13.88,6.81,5.61,0,9.61-1.38,11.97-4.14,2.37-2.76,3.55-5.94,3.55-9.56v-.66h18.53v.73c0,7.37-2.92,13.89-8.75,19.56-5.83,5.67-14.22,8.5-25.16,8.5-11.57,0-20.8-3.61-27.69-10.84-6.88-7.23-10.33-16.82-10.33-28.78v-2.34Z"/>
  </g>
</svg>